      <svg viewBox="0 0 16 16" xmlns="http://www.w3.org/2000/svg">
        <path fill="#00ee66" d="M0 8C0.0208333 6.5 0.385417 5.15625 1.09375 3.96875C1.80208 2.76042 2.76042 1.80208 3.96875 1.09375C5.15625 0.385417 6.5 0.0208333 8 0C9.5 0.0208333 10.8438 0.385417 12.0312 1.09375C13.2396 1.80208 14.1979 2.76042 14.9062 3.96875C15.6146 5.15625 15.9792 6.5 16 8C15.9792 9.5 15.6146 10.8438 14.9062 12.0312C14.1979 13.2396 13.2396 14.1979 12.0312 14.9062C10.8438 15.6146 9.5 15.9792 8 16C6.5 15.9792 5.15625 15.6146 3.96875 14.9062C2.76042 14.1979 1.80208 13.2396 1.09375 12.0312C0.385417 10.8438 0.0208333 9.5 0 8ZM11.625 6.625C11.7917 6.4375 11.875 6.22917 11.875 6C11.875 5.77083 11.7917 5.5625 11.625 5.375C11.4375 5.20833 11.2292 5.125 11 5.125C10.7708 5.125 10.5625 5.20833 10.375 5.375L7 8.75L5.625 7.375C5.4375 7.20833 5.22917 7.125 5 7.125C4.77083 7.125 4.5625 7.20833 4.375 7.375C4.20833 7.5625 4.125 7.77083 4.125 8C4.125 8.22917 4.20833 8.4375 4.375 8.625L6.375 10.625C6.5625 10.7917 6.77083 10.875 7 10.875C7.22917 10.875 7.4375 10.7917 7.625 10.625L11.625 6.625Z" />
      </svg>