<svg
  width="34"
  height="21"
  viewBox="0 0 34 21"
  fill="none"
  xmlns="http://www.w3.org/2000/svg"
>
  <path
    d="M17.5011 0.0477515L10.3213 0.0477514L17.5011 7.22754L17.5011 0.0477515Z"
    fill="white"
  />
  <path
    d="M17.5011 20.6897L17.5011 13.5099L10.3213 20.6897L17.5011 20.6897Z"
    fill="white"
  />
  <path
    d="M-4.51143e-07 10.3688C-2.01984e-07 16.0689 4.62084 20.6897 10.3209 20.6897L10.3209 0.0478072C4.62084 0.0478075 -7.00302e-07 4.66865 -4.51143e-07 10.3688Z"
    fill="#DEFFFE"
  />
  <rect
    x="19.7448"
    y="20.6897"
    width="5.38484"
    height="13.9108"
    transform="rotate(-90 19.7448 20.6897)"
    fill="#316BF4"
  />
  <path
    d="M33.6551 6.89657C33.6551 10.7054 30.5674 13.7931 26.7585 13.7931C22.9496 13.7931 19.8619 10.7054 19.8619 6.89657C19.8619 3.0877 22.9496 6.65964e-07 26.7585 0C30.5674 -6.65964e-07 33.6551 3.0877 33.6551 6.89657Z"
    fill="white"
  />
</svg>
